<svg width="57" height="84" viewBox="0 0 57 84" fill="none" xmlns="http://www.w3.org/2000/svg">
<path d="M56.9474 9.84162C57.171 8.05386 56.6758 6.25058 55.5698 4.82478C54.4638 3.39898 52.8367 2.46623 51.043 2.22982C49.2359 1.92643 47.3804 2.31441 45.8486 3.31599C45.1109 3.78702 44.4788 4.40449 43.9917 5.1298C43.5046 5.8551 43.173 6.67266 43.0176 7.53136L37.0266 29.0823L31.6589 6.20382C31.2881 4.3748 30.2028 2.76737 28.6417 1.73515C27.0806 0.702928 25.1717 0.330464 23.3348 0.699696C21.4979 1.06893 19.8835 2.14961 18.8469 3.70401C17.8102 5.25841 17.4361 7.15919 17.807 8.9882L21.9452 29.5909C21.0885 29.2508 20.157 29.1408 19.2441 29.272L16.2313 29.703C15.126 29.8599 14.099 30.3616 13.2979 31.136C12.4968 31.9104 11.9629 32.9177 11.7727 34.0132C10.895 33.6166 9.92153 33.479 8.96768 33.6167L4.37921 34.2718C3.71789 34.3618 3.08095 34.581 2.50501 34.9169C1.92906 35.2527 1.42548 35.6987 1.0232 36.229C0.620929 36.7593 0.3279 37.3636 0.160963 38.0071C-0.00597304 38.6505 -0.0435231 39.3205 0.050471 39.9785L1.13266 47.4783C1.02877 49.4523 -0.0361053 67.8741 8.80318 77.6065C10.4701 79.4451 12.5092 80.9112 14.7864 81.9082C17.0635 82.9052 19.527 83.4105 22.0145 83.3908H24.352C44.2123 83.3908 50.3245 77.46 53.6057 56.34C53.8506 54.4791 53.6223 52.5867 52.9416 50.8365C52.2609 49.0863 51.1496 47.5344 49.7098 46.3231L50.6275 40.013L56.9474 9.84162ZM23.8499 3.22116C24.4293 3.1072 25.0255 3.1083 25.6045 3.22441C26.1834 3.34051 26.7336 3.56933 27.2235 3.89772C27.7134 4.22612 28.1333 4.64763 28.4592 5.13805C28.785 5.62847 29.0104 6.17815 29.1223 6.75552L35.702 34.7718C35.7822 35.084 35.9766 35.3552 36.2471 35.5321C36.5176 35.7091 36.8448 35.7791 37.1644 35.7284C37.4841 35.6777 37.7732 35.5099 37.9751 35.258C38.177 35.0061 38.2772 34.6882 38.2559 34.3666L45.5455 8.16065V8.02272C45.6338 7.49417 45.8338 6.99032 46.1323 6.54449C46.4308 6.09867 46.821 5.72105 47.277 5.4366C48.2669 4.79507 49.4633 4.54881 50.6275 4.74697C53.0602 5.13489 54.7484 7.22102 54.4108 9.34164L48.0822 39.513L47.2943 44.918L26.0922 38.2027L25.8584 38.1337L25.2264 33.7287C25.1935 33.4695 25.1414 33.2131 25.0706 32.9615C25.1667 32.7266 25.1908 32.4687 25.1399 32.2202L20.3609 8.4796C20.2421 7.90614 20.2382 7.31496 20.3493 6.73998C20.4605 6.165 20.6846 5.61753 21.0088 5.12898C21.3329 4.64043 21.7507 4.22041 22.2383 3.89302C22.7258 3.56563 23.2735 3.33731 23.8499 3.22116ZM14.8375 33.3063C15.2545 32.7456 15.8766 32.3709 16.5689 32.2633L19.5818 31.8322C19.7114 31.823 19.8416 31.823 19.9713 31.8322C20.6159 31.834 21.2382 32.0667 21.7246 32.4877C22.211 32.9087 22.529 33.49 22.6205 34.1253L23.1053 37.5131C19.5471 36.9183 16.6728 37.5131 14.7768 38.6941L14.292 35.3149C14.2424 34.9608 14.2652 34.6003 14.3589 34.2552C14.4526 33.91 14.6154 33.5873 14.8375 33.3063ZM3.13253 37.7889C3.32648 37.5326 3.56932 37.3169 3.84713 37.1542C4.12494 36.9915 4.43226 36.8849 4.75148 36.8407L9.33995 36.1855C9.98608 36.0944 10.6422 36.2618 11.1646 36.6511C11.6871 37.0405 12.0334 37.6201 12.1277 38.2631L12.5692 41.3147C11.7308 43.6641 11.8049 46.2408 12.777 48.5386C13.0952 49.373 13.4924 50.1754 13.963 50.935L14.3786 53.8401C14.4127 54.0675 14.4008 54.2993 14.3436 54.522C14.2864 54.7447 14.185 54.9538 14.0455 55.1369C13.9059 55.3201 13.731 55.4735 13.531 55.5884C13.331 55.7032 13.1099 55.777 12.8809 55.8056L7.05437 56.6676C6.80584 56.7041 6.5525 56.6914 6.30895 56.63C6.06539 56.5687 5.83643 56.4599 5.63525 56.3101C5.43408 56.1603 5.26466 55.9723 5.13675 55.757C5.00885 55.5417 4.92499 55.3033 4.89 55.0556L2.66503 39.6078C2.61844 39.2889 2.63577 38.964 2.71601 38.6518C2.79625 38.3396 2.93782 38.0463 3.13253 37.7889ZM51.043 56.0211C47.8657 76.6324 42.4462 81.2702 22.0664 80.8047C19.9303 80.8211 17.815 80.3863 15.86 79.5289C13.905 78.6715 12.1549 77.4111 10.7251 75.8307C6.5609 71.3223 4.82074 64.288 4.11949 58.3917C4.89001 58.9547 5.82159 59.2569 6.77734 59.2537C6.99062 59.2687 7.2047 59.2687 7.41799 59.2537L13.2445 58.3917C13.948 58.2844 14.6141 58.0061 15.1838 57.5814C15.583 58.402 16.2067 59.0938 16.9831 59.5772C17.7596 60.0606 18.6573 60.316 19.5731 60.314C19.8107 60.3136 20.0479 60.2963 20.283 60.2623L24.5511 59.6502C25.5846 59.4998 26.5286 58.9824 27.209 58.1934L33.1047 59.9692C33.2734 60.0525 33.4582 60.0982 33.6464 60.1033C33.8346 60.1084 34.0217 60.0726 34.1946 59.9986C34.3676 59.9245 34.5223 59.8139 34.648 59.6744C34.7738 59.5349 34.8675 59.3698 34.9229 59.1907C34.9782 59.0115 34.9937 58.8225 34.9684 58.6367C34.9431 58.451 34.8775 58.2729 34.7762 58.1149C34.6749 57.9569 34.5403 57.8228 34.3817 57.7217C34.2232 57.6206 34.0445 57.5551 33.8579 57.5296L20.3956 53.4436C17.9786 52.235 16.1194 50.1492 15.2011 47.6162C14.4231 45.8368 14.3796 43.824 15.0799 42.0129C15.8417 40.3923 19.6164 38.8406 25.2957 40.6681L46.6537 47.4438C49.5193 48.5644 51.5711 52.5729 51.043 56.0211ZM17.0884 54.4349C17.8047 54.9861 18.5869 55.4465 19.4173 55.8056L23.746 57.1158L19.9021 57.6676C19.2983 57.7496 18.6862 57.5937 18.1962 57.233C17.7062 56.8724 17.3771 56.3354 17.2789 55.7366L17.0884 54.4349Z" fill="#2B59C3"/>
</svg>
