<svg width="61" height="87" viewBox="0 0 61 87" fill="none" xmlns="http://www.w3.org/2000/svg">
<path d="M0 68.53C0 86.8167 16.8807 86.8167 30.4452 86.8167C44.0044 86.8167 60.8799 86.8167 60.8799 68.53C60.8799 55.3026 52.5743 36.9667 41.0143 29.5394C42.2252 28.6605 42.8139 27.3933 42.8139 26.0618C42.8139 24.2765 41.7189 22.7409 40.1617 22.0807L48.3533 4.95706C48.5797 4.48389 48.5086 3.92355 48.1723 3.52116C47.836 3.11812 47.295 2.94903 46.7869 3.08338L39.345 5.07438L30.9994 1.0511C30.5959 0.855796 30.1214 0.874143 29.7338 1.09893L22.9025 5.06193L15.2822 3.08076C14.7754 2.95034 14.2364 3.12205 13.9034 3.52445C13.5691 3.92684 13.4994 4.48587 13.7251 4.95707L21.781 21.7971C19.5581 22.1215 18.066 23.9969 18.066 26.0618C18.066 27.4931 18.7775 28.7546 19.859 29.5427C8.30207 36.969 0 55.3016 0 68.53ZM22.7604 7.79937C23.1046 7.88915 23.4718 7.83935 23.7791 7.66042L30.4709 3.77804L38.6223 7.70826C38.9132 7.84916 39.2462 7.88062 39.5588 7.79674L44.6619 6.43161L37.341 21.735H24.7373L17.4046 6.40671L22.7604 7.79937ZM22.4214 24.4194C37.9833 24.4194 22.8073 24.4194 38.4584 24.4194C39.3739 24.4194 40.1182 25.156 40.1182 26.0617C40.1182 27.0033 39.3158 27.7041 38.4584 27.7041C30.4043 27.7041 26.821 27.7041 22.4214 27.7041C21.506 27.7041 20.7616 26.9675 20.7616 26.0617C20.7617 25.1857 21.4725 24.4194 22.4214 24.4194ZM23.8581 30.3885H37.0224C48.9607 35.8942 58.1842 55.3205 58.1842 68.53C58.1842 83.0129 46.6875 84.1323 30.4452 84.1323C14.1969 84.1323 2.69564 83.0129 2.69564 68.53C2.69565 55.3172 11.9192 35.8896 23.8581 30.3885Z" fill="#2B59C3"/>
<path d="M30.4395 75.9802C38.7528 75.9802 45.5156 69.2457 45.5156 60.9672C45.5156 52.6886 38.7528 45.9541 30.4395 45.9541C22.1261 45.9541 15.3633 52.6886 15.3633 60.9672C15.3633 69.2457 22.1261 75.9802 30.4395 75.9802ZM30.4395 48.6385C37.2661 48.6385 42.82 54.1691 42.82 60.9672C42.82 67.7652 37.2661 73.2959 30.4395 73.2959C23.6128 73.2959 18.0589 67.7652 18.0589 60.9672C18.0589 54.1691 23.6128 48.6385 30.4395 48.6385Z" fill="#2B59C3"/>
<path d="M30.4649 62.3094C31.4501 62.3094 32.2517 63.107 32.2517 64.0874C32.2517 65.0672 31.4507 65.8648 30.4662 65.8648C29.4823 65.8648 28.6813 65.0672 28.6813 64.0874C28.6813 63.3462 28.0779 62.7452 27.3335 62.7452C26.5892 62.7452 25.9857 63.3462 25.9857 64.0874C25.9857 66.082 27.3155 67.755 29.132 68.3245L29.142 69.0604C29.1519 69.7951 29.7534 70.3843 30.4892 70.3843C30.4958 70.3843 30.5017 70.3843 30.5083 70.3843C31.2526 70.3738 31.8476 69.7649 31.8377 69.0237L31.8281 68.316C33.6308 67.7381 34.9473 66.072 34.9473 64.0874C34.9473 61.6272 32.9368 59.625 30.4649 59.625C29.4797 59.625 28.6781 58.8274 28.6781 57.847C28.6781 56.8672 29.479 56.0696 30.4629 56.0696C31.4474 56.0696 32.2484 56.8672 32.2484 57.847C32.2484 58.5882 32.8519 59.1892 33.5962 59.1892C34.3406 59.1892 34.9441 58.5882 34.9441 57.847C34.9441 55.852 33.6133 54.1788 31.7961 53.6096L31.7864 52.8753C31.7765 52.14 31.175 51.5508 30.4392 51.5508C30.4326 51.5508 30.4267 51.5508 30.4208 51.5508C29.6765 51.5606 29.0809 52.1695 29.0907 52.9107L29.1001 53.6187C27.2983 54.197 25.9824 55.8629 25.9824 57.847C25.9824 60.3072 27.993 62.3094 30.4649 62.3094Z" fill="#2B59C3"/>
</svg>
