<svg width="65" height="70" viewBox="0 0 65 70" fill="none" xmlns="http://www.w3.org/2000/svg">
<g clip-path="url(#clip0)">
<path d="M49.6785 7.58333L45.1517 0.583333C45.0356 0.233333 44.6874 0 44.2231 0H20.7767C20.4285 0 19.9642 0.233333 19.8481 0.583333L15.3213 7.58333C14.9731 8.05 15.0892 8.63333 15.4374 9.1L31.6874 25.4333C31.8035 25.55 31.9195 25.55 31.9195 25.6667H32.0356C32.1517 25.6667 32.2678 25.7833 32.3838 25.7833C32.4999 25.7833 32.616 25.7833 32.732 25.6667C32.732 25.6667 32.732 25.6667 32.8481 25.6667C32.9642 25.6667 33.0803 25.55 33.0803 25.4333L49.3303 9.1C49.9106 8.63333 50.0267 8.05 49.6785 7.58333ZM29.9463 2.33333H35.0535L37.607 7H26.6963L29.9463 2.33333ZM21.357 2.33333H27.0445L23.7945 7H18.4553L21.357 2.33333ZM19.0356 9.33333H23.6785L28.3213 18.55L19.0356 9.33333ZM32.3838 21.7L26.232 9.33333H37.7231L32.3838 21.7ZM35.982 19.3667L40.2767 9.33333H45.9642L35.982 19.3667ZM40.1606 7L37.607 2.33333H43.5267L46.5445 7H40.1606Z" fill="#2B59C3"/>
<path d="M44.1071 28C44.8036 28 45.2679 27.5333 45.2679 26.8333V25.6667H46.4286C47.125 25.6667 47.5893 25.2 47.5893 24.5C47.5893 23.8 47.125 23.3333 46.4286 23.3333H45.2679V22.1667C45.2679 21.4667 44.8036 21 44.1071 21C43.4107 21 42.9464 21.4667 42.9464 22.1667V23.3333H41.7857C41.0893 23.3333 40.625 23.8 40.625 24.5C40.625 25.2 41.0893 25.6667 41.7857 25.6667H42.9464V26.8333C42.9464 27.5333 43.5268 28 44.1071 28Z" fill="#2B59C3"/>
<path d="M2.32153 17.15C2.08939 16.5667 1.50903 16.2167 0.8126 16.45C0.232243 16.6833 -0.115971 17.2667 0.116171 17.9667L9.40189 31.7333V68.8333C9.40189 69.5333 9.86617 70 10.5626 70H54.6697C55.3662 70 55.8305 69.5333 55.8305 68.8333V31.7333L65.0001 17.85C65.2322 17.2667 64.884 16.5667 64.3037 16.3333C63.7233 16.1 63.0269 16.45 62.7947 17.0333L53.7412 30.3333H11.259L2.32153 17.15ZM53.393 67.6667H33.6608V52.5H34.7055L43.8751 54.8333C44.4555 54.95 45.1519 54.6 45.268 54.0167C45.268 53.9 45.268 53.7833 45.268 53.7833V50.2833H53.393V67.6667ZM35.9822 50.4V47.6L42.9465 45.85V52.15L35.9822 50.4ZM33.6608 32.6667H53.393V47.8333H45.268V44.3333C45.268 43.6333 44.8037 43.1667 44.1072 43.1667C43.9912 43.1667 43.8751 43.1667 43.8751 43.1667L34.7055 45.5H33.6608V32.6667ZM33.6608 50.1667H31.3394V47.8333H33.6608V50.1667ZM11.6072 32.6667H31.3394V45.5H30.2947L21.1251 43.1667C20.5447 43.05 19.8483 43.4 19.7322 43.9833C19.7322 44.1 19.7322 44.2167 19.7322 44.2167V47.7167H11.6072V32.6667ZM29.018 47.6V50.4L22.0537 52.15V45.85L29.018 47.6ZM11.6072 50.1667H19.7322V53.6667C19.7322 54.3667 20.1965 54.8333 20.893 54.8333C21.009 54.8333 21.1251 54.8333 21.1251 54.8333L30.2947 52.5H31.3394V67.6667H11.6072V50.1667Z" fill="#2B59C3"/>
<path d="M24.3751 28.0001C25.0161 28.0001 25.5358 27.4777 25.5358 26.8334C25.5358 26.1891 25.0161 25.6667 24.3751 25.6667C23.734 25.6667 23.2144 26.1891 23.2144 26.8334C23.2144 27.4777 23.734 28.0001 24.3751 28.0001Z" fill="#2B59C3"/>
<path d="M13.9286 18.6667V19.8333H12.7679C12.0715 19.8333 11.6072 20.3 11.6072 21C11.6072 21.7 12.0715 22.1667 12.7679 22.1667H13.9286V23.3333C13.9286 24.0333 14.3929 24.5 15.0893 24.5C15.7857 24.5 16.25 24.0333 16.25 23.3333V22.1667H17.4108C18.1072 22.1667 18.5715 21.7 18.5715 21C18.5715 20.3 18.1072 19.8333 17.4108 19.8333H16.25V18.6667C16.25 17.9667 15.7857 17.5 15.0893 17.5C14.3929 17.5 13.9286 17.9667 13.9286 18.6667Z" fill="#2B59C3"/>
<path d="M53.3929 18.6666C54.0339 18.6666 54.5536 18.1443 54.5536 17.4999C54.5536 16.8556 54.0339 16.3333 53.3929 16.3333C52.7518 16.3333 52.2322 16.8556 52.2322 17.4999C52.2322 18.1443 52.7518 18.6666 53.3929 18.6666Z" fill="#2B59C3"/>
</g>
<defs>
<clipPath id="clip0">
<rect width="65" height="70" fill="white"/>
</clipPath>
</defs>
</svg>
