<svg width="70" height="72" viewBox="0 0 70 72" fill="none" xmlns="http://www.w3.org/2000/svg">
<path d="M35 0C15.701 0 0 15.979 0 35.6196C0 55.2603 15.701 71.2393 35 71.2393C54.299 71.2393 70 55.2603 70 35.6196C70 15.979 54.299 0 35 0ZM35 67.6773C17.6313 67.6773 3.5 53.2959 3.5 35.6196C3.5 17.9434 17.6313 3.56196 35 3.56196C52.3688 3.56196 66.5 17.9434 66.5 35.6196C66.5 53.2959 52.3688 67.6773 35 67.6773Z" fill="white"/>
<path d="M57.3983 18.5188L54.6017 20.6596C57.806 24.9998 59.5 30.1718 59.5 35.6199C59.5 49.3691 48.51 60.5537 35 60.5537C21.49 60.5537 10.5 49.3691 10.5 35.6199C10.5 21.8706 21.49 10.686 35 10.686C38.983 10.686 42.9363 11.6798 46.4328 13.5605L48.069 10.41C44.0702 8.2603 39.55 7.12402 35 7.12402C19.5615 7.12402 7 19.908 7 35.6199C7 51.3318 19.5615 64.1157 35 64.1157C50.4385 64.1157 63 51.3318 63 35.6199C63 29.3953 61.0627 23.4824 57.3983 18.5188Z" fill="white"/>
<path d="M54.0356 14.7236C53.3269 14.0539 52.5762 13.4145 51.8027 12.8232L49.6992 15.671C50.3765 16.1893 51.0344 16.7485 51.6539 17.3345L54.0356 14.7236Z" fill="white"/>
<path d="M33.25 23.1527H36.75C39.6445 23.1527 42 25.5499 42 28.4957H45.5C45.5 23.5855 41.5747 19.5908 36.75 19.5908V16.0288H33.25V19.5908C28.4253 19.5908 24.5 23.5855 24.5 28.4957C24.5 33.4059 28.4253 37.4006 33.25 37.4006H36.75C39.6445 37.4006 42 39.7978 42 42.7436C42 45.6893 39.6445 48.0865 36.75 48.0865H33.25C30.3555 48.0865 28 45.6893 28 42.7436H24.5C24.5 47.6537 28.4253 51.6485 33.25 51.6485V55.2104H36.75V51.6485C41.5747 51.6485 45.5 47.6537 45.5 42.7436C45.5 37.8334 41.5747 33.8386 36.75 33.8386H33.25C30.3555 33.8386 28 31.4414 28 28.4957C28 25.5499 30.3555 23.1527 33.25 23.1527Z" fill="white"/>
<path d="M54.25 33.8389H50.75V37.4004H54.25V33.8389Z" fill="white"/>
<path d="M19.25 33.8389H15.75V37.4004H19.25V33.8389Z" fill="white"/>
</svg>
