<svg width="63" height="57" viewBox="0 0 63 57" fill="none" xmlns="http://www.w3.org/2000/svg">
<g clip-path="url(#clip0)">
<path d="M63 17.8539C63 13.2252 61.1625 8.99314 58.0125 5.68688C51.45 -0.92565 41.0812 -1.0579 34.3875 5.29013C34.3875 5.29013 34.2563 5.29013 34.2563 5.42238L31.8937 7.80289L29.0063 5.02563C22.3125 -1.71915 11.55 -1.71915 4.85625 5.02563C1.70625 8.06739 0 12.4317 0 17.0604C0 21.6892 1.8375 25.9212 4.9875 29.2275L6.825 31.079C5.90625 32.0047 5.38125 33.3273 5.38125 34.6498C5.38125 36.1045 5.90625 37.427 6.95625 38.3528C8.00625 39.4108 9.31875 39.9398 10.6313 39.9398C10.7625 39.9398 10.8938 39.9398 10.8938 39.9398C10.7625 41.3945 11.2875 42.8493 12.4688 44.0395C13.5188 45.0976 14.8313 45.6266 16.1438 45.6266C16.275 45.6266 16.4062 45.6266 16.4062 45.6266C16.4062 45.7588 16.4062 45.8911 16.4062 46.0233C16.4062 47.4781 16.9312 48.8006 17.9812 49.7263C19.0312 50.7843 20.3438 51.3133 21.6562 51.3133C21.7875 51.3133 21.9188 51.3133 21.9188 51.3133C21.7875 52.7681 22.3125 54.2228 23.4937 55.4131C24.5437 56.4711 25.8563 57.0001 27.1688 57.0001C28.6125 57.0001 29.7938 56.4711 30.8438 55.5453L35.5688 50.7843C35.8312 50.5198 36.0938 50.2553 36.225 49.9908C37.275 50.9166 38.4562 51.4456 39.7687 51.4456C41.0812 51.4456 42.3937 50.9166 43.4437 49.8586C44.4937 48.8006 45.0187 47.4781 45.0187 46.1556C45.0187 46.0233 45.0187 45.8911 45.0187 45.7588C45.15 45.7588 45.2812 45.7588 45.4125 45.7588C46.8562 45.7588 48.1688 45.2298 49.0875 44.1718C50.1375 43.1138 50.6625 41.7913 50.6625 40.4688C50.6625 40.3365 50.6625 40.2043 50.6625 40.072C50.7937 40.072 50.925 40.072 51.0563 40.072C52.3688 40.072 53.6813 39.543 54.7313 38.485C55.7812 37.427 56.3063 36.1045 56.3063 34.782C56.3063 33.9885 56.0438 33.195 55.7812 32.4015L58.0125 30.1532C61.2938 26.7147 63 22.4827 63 17.8539ZM10.6313 37.2948C9.975 37.2948 9.31875 37.0303 8.79375 36.5013C8.26875 35.9723 8.00625 35.311 8.00625 34.6498C8.00625 33.9885 8.26875 33.3272 8.79375 32.7982L13.5188 28.0372C14.0437 27.5082 14.5687 27.2437 15.3562 27.2437C16.0125 27.2437 16.6688 27.5082 17.1938 28.0372C18.2437 29.0952 18.2437 30.6822 17.1938 31.7402L12.4688 36.5013C11.9438 37.0303 11.2875 37.2948 10.6313 37.2948ZM16.275 42.8493C15.6187 42.8493 14.9625 42.5848 14.4375 42.0558C13.3875 40.9978 13.3875 39.4108 14.4375 38.3528L19.1625 33.5918C19.6875 33.0627 20.2125 32.7982 21 32.7982C21.6562 32.7982 22.3125 33.0627 22.8375 33.5918C23.3625 34.1208 23.625 34.782 23.625 35.4433C23.625 36.1045 23.3625 36.7658 22.8375 37.2948L18.1125 42.0558C17.5875 42.5848 16.9312 42.8493 16.275 42.8493ZM21.7875 48.5361C21.1313 48.5361 20.475 48.2716 19.95 47.7426C19.425 47.2136 19.1625 46.5523 19.1625 45.8911C19.1625 45.2298 19.425 44.5686 19.95 44.0395L24.675 39.2785C25.2 38.7495 25.725 38.485 26.5125 38.485C27.1688 38.485 27.825 38.7495 28.35 39.2785C29.4 40.3365 29.4 41.9235 28.35 42.9815L23.625 47.7426C23.1 48.2716 22.4438 48.5361 21.7875 48.5361ZM29.1375 53.4293C28.2188 54.3551 26.5125 54.3551 25.4625 53.4293C24.4125 52.3713 24.4125 50.7843 25.4625 49.7263L30.1875 44.9653C30.7125 44.4363 31.2375 44.1718 32.025 44.1718C32.6812 44.1718 33.3375 44.4363 33.8625 44.9653C34.3875 45.4943 34.65 46.1556 34.65 46.8168C34.65 47.4781 34.3875 48.1393 33.8625 48.6683L29.1375 53.4293ZM53.025 36.5013C51.975 37.5593 50.2687 37.5593 49.35 36.5013L39.6375 26.7147C39.1125 26.1857 38.325 26.1857 37.8 26.7147C37.275 27.2437 37.275 28.0372 37.8 28.5662L47.5125 38.3528C48.0375 38.8818 48.3 39.543 48.3 40.2043C48.3 40.8655 48.0375 41.5268 47.5125 42.0558C46.4625 43.1138 44.7563 43.1138 43.8375 42.0558L33.075 31.2112C32.55 30.6822 31.7625 30.6822 31.2375 31.2112C30.7125 31.7402 30.7125 32.5337 31.2375 33.0627L42 43.9073C42.525 44.4363 42.7875 45.0976 42.7875 45.7588C42.7875 46.4201 42.525 47.0813 42 47.6103C40.95 48.6683 39.375 48.6683 38.325 47.6103L37.4062 46.6846C37.4062 45.2298 36.8812 43.9073 35.8312 42.9815C34.7812 41.9235 33.4688 41.3945 32.1562 41.3945C32.025 41.3945 31.8937 41.3945 31.8937 41.3945C32.025 39.9398 31.5 38.485 30.3188 37.2948C29.2688 36.2368 27.9562 35.7078 26.6437 35.7078C26.5125 35.7078 26.3813 35.7078 26.3813 35.7078C26.3813 35.5755 26.3813 35.4433 26.3813 35.311C26.3813 33.8563 25.8562 32.5337 24.8062 31.608C23.7563 30.55 22.4438 30.021 21.1313 30.021C21 30.021 20.8687 30.021 20.8687 30.021C21 28.5662 20.475 27.1115 19.2937 25.9212C18.2437 24.8632 16.9312 24.3342 15.6187 24.3342C14.175 24.3342 12.9938 24.8632 11.9438 25.789L8.925 28.8307L7.0875 26.9792C4.06875 24.5987 2.625 20.8957 2.625 17.0604C2.625 13.2252 4.06875 9.52215 6.825 6.74488C12.4688 1.05811 21.6562 1.05811 27.3 6.74488L30.1875 9.52215L23.2313 16.5314C22.05 17.7217 21.2625 19.4409 21.2625 21.1602C21.2625 22.8795 21.9188 24.5987 23.2313 25.789C24.5438 27.1115 26.25 27.7727 27.825 27.7727C29.4 27.7727 31.2375 27.1115 32.4188 25.789L39.375 18.7797L53.025 32.5337C53.55 33.0627 53.8125 33.724 53.8125 34.3853C53.8125 35.0465 53.55 35.9723 53.025 36.5013ZM54.2062 30.1532L40.2938 16.1347C39.9 15.7379 39.375 15.6057 38.85 15.8702C38.7188 15.8702 38.5875 16.0024 38.4562 16.1347L30.5812 24.0697C29.0062 25.6567 26.5125 25.6567 25.0688 24.0697C24.2812 23.2762 23.8875 22.3505 23.8875 21.2924C23.8875 20.2344 24.2812 19.1764 25.0688 18.5152L35.8312 7.67064C41.3438 1.85161 50.5312 1.85161 56.175 7.53839C58.9312 10.3156 60.375 13.8864 60.375 17.8539C60.375 21.6892 58.9312 25.3922 56.175 28.1695L54.2062 30.1532Z" fill="#2B59C3"/>
</g>
<defs>
<clipPath id="clip0">
<rect width="63" height="57" fill="white"/>
</clipPath>
</defs>
</svg>
