<svg width="64" height="66" viewBox="0 0 64 66" fill="none" xmlns="http://www.w3.org/2000/svg">
<g clip-path="url(#clip0)">
<path d="M31.5254 26.2105C31.3146 26.421 31.2091 26.5263 31.1037 26.7368C30.9983 26.5263 30.7874 26.421 30.682 26.3158C28.995 24.6316 26.2536 24.3158 24.2503 25.5789C23.934 25.7895 23.6177 26 23.4068 26.3158C23.0905 26.6316 22.8797 26.8421 22.6688 27.1579C21.4035 29.1579 21.6144 31.8947 23.4068 33.5789L30.5765 40.7368C30.7874 40.9474 31.1037 41.0526 31.3146 41.0526C31.5255 41.0526 31.8418 40.9474 32.0526 40.7368L39.1169 33.6842C41.2256 31.5789 41.2256 28.2105 39.1169 26.1053C37.0082 24.1053 33.6342 24.1053 31.5254 26.2105ZM37.6408 32.3158L31.3146 38.6316L24.8829 32.2105C23.8286 31.1579 23.7231 29.5789 24.4612 28.421C24.5666 28.2105 24.6721 28.1053 24.8829 27.8947C25.0938 27.6842 25.1993 27.5789 25.4101 27.4737C25.9373 27.1579 26.4645 26.9474 27.0971 26.9474C27.9406 26.9474 28.6787 27.2632 29.3113 27.7895C29.733 28.2105 30.0493 28.8421 30.1548 29.4737C30.2602 30 30.682 30.3158 31.2091 30.3158C31.7363 30.3158 32.1581 29.8947 32.2635 29.4737C32.3689 28.8421 32.6853 28.2105 33.2124 27.6842C34.4777 26.421 36.481 26.421 37.7462 27.6842C38.906 28.9474 38.906 31.0526 37.6408 32.3158Z" fill="#2B59C3"/>
<path d="M18.2406 27.2633C18.6624 27.2633 18.9787 27.0528 19.1896 26.737C19.4004 26.2107 19.1896 25.5791 18.7678 25.3686C18.2406 25.0528 17.608 25.2633 17.2917 25.7896C17.0808 26.316 17.2917 26.9475 17.7135 27.2633C17.9243 27.2633 18.0298 27.2633 18.2406 27.2633Z" fill="#2B59C3"/>
<path d="M15.7101 30.4211C15.6047 30.9474 16.0264 31.4737 16.5536 31.579C16.659 31.579 16.659 31.579 16.7645 31.579C17.2917 31.579 17.7134 31.1579 17.8188 30.7369C17.9243 30.2106 17.5025 29.579 16.9754 29.579C16.3427 29.4737 15.8155 29.8948 15.7101 30.4211Z" fill="#2B59C3"/>
<path d="M16.7645 36.2106C16.8699 36.2106 16.8699 36.2106 16.9754 36.2106C17.608 36.1053 17.9243 35.579 17.8189 35.0527C17.7134 34.5264 17.1863 34.1053 16.6591 34.2106C16.1319 34.3158 15.7101 34.8422 15.8156 35.3685C15.8156 35.7895 16.2373 36.2106 16.7645 36.2106Z" fill="#2B59C3"/>
<path d="M20.1383 21.7894C19.9275 21.9999 19.822 22.2105 19.822 22.5263C19.822 22.8421 19.9275 23.0526 20.1383 23.2631C20.3492 23.4736 20.5601 23.5789 20.8764 23.5789C21.1927 23.5789 21.4036 23.4736 21.6144 23.2631C21.8253 23.0526 21.9308 22.8421 21.9308 22.5263C21.9308 22.2105 21.8253 21.9999 21.6144 21.7894C21.2981 21.3684 20.5601 21.3684 20.1383 21.7894Z" fill="#2B59C3"/>
<path d="M45.8648 31.579C46.4975 31.4737 46.8138 30.9474 46.7083 30.4211C46.6029 29.8948 46.0757 29.4737 45.5485 29.579C44.9159 29.6842 44.5996 30.2106 44.705 30.7369C44.8105 31.2632 45.2322 31.579 45.7594 31.579C45.7594 31.6842 45.8648 31.6842 45.8648 31.579Z" fill="#2B59C3"/>
<path d="M45.5486 36.2106C45.6541 36.2106 45.6541 36.2106 45.7595 36.2106C46.2867 36.2106 46.7084 35.8948 46.8139 35.3685C46.9193 34.8422 46.4976 34.2106 45.9704 34.1053C45.4432 34.0001 44.916 34.4211 44.8106 34.9475C44.5997 35.579 45.0215 36.1054 45.5486 36.2106Z" fill="#2B59C3"/>
<path d="M43.3344 39.0528C43.0181 39.5791 43.229 40.2107 43.7562 40.4212C43.8616 40.5265 44.0725 40.5265 44.2833 40.5265C44.7051 40.5265 45.0214 40.316 45.2323 40.0002C45.4431 39.4739 45.3377 38.8423 44.8105 38.6318C44.2833 38.316 43.6507 38.5265 43.3344 39.0528Z" fill="#2B59C3"/>
<path d="M40.593 43.5791C40.593 43.6843 40.6984 43.7896 40.8039 43.8949C41.0147 44.1054 41.2256 44.2107 41.5419 44.2107C41.6474 44.2107 41.8582 44.2107 41.9637 44.1054C42.0691 44.0001 42.1745 44.0001 42.28 43.8949C42.3854 43.7896 42.4908 43.6843 42.4908 43.5791C42.5963 43.4738 42.5963 43.3686 42.5963 43.158C42.5963 42.8422 42.4908 42.6317 42.28 42.4212C42.1745 42.3159 42.0691 42.2107 41.9637 42.2107C41.5419 42.1054 41.1202 42.1054 40.8039 42.4212C40.6984 42.5265 40.593 42.6317 40.593 42.737C40.4875 42.8422 40.4875 42.9475 40.4875 43.158C40.593 43.3686 40.593 43.4738 40.593 43.5791Z" fill="#2B59C3"/>
<path d="M28.257 65.0528C29.2059 65.5791 30.2603 65.8949 31.4201 65.8949C32.0527 65.8949 32.7908 65.7897 33.4234 65.5791L61.3641 54.9475C63.5783 54.2107 64.6326 51.7897 63.7891 49.6844C63.0511 47.5791 60.7315 46.737 59.2554 47.2633L46.4975 51.1581C46.4975 50.9475 46.4975 50.8423 46.4975 50.6318C46.4975 48.6318 44.8105 46.9475 42.8072 46.9475H32.2636C31.631 46.9475 30.8929 46.737 30.3657 46.316L22.2471 39.8949C20.8764 38.8423 19.1895 38.2107 17.5025 38.2107H13.1796C12.9687 36.316 11.3871 34.8423 9.48929 34.8423H3.69028C1.68699 34.8423 0 36.5265 0 38.5265V58.1054C0 60.1054 1.68699 61.7897 3.69028 61.7897H9.59473C11.598 61.7897 13.285 60.1054 13.285 58.1054V58.0002H15.8155C16.3427 58.0002 16.7644 58.1054 17.2916 58.4212L27.9407 64.8423C27.9407 64.8423 28.0461 64.9475 28.1516 64.9475L28.257 65.0528ZM11.1763 58.2107C11.1763 59.0528 10.4382 59.7897 9.59473 59.7897H3.69028C2.84679 59.7897 2.10873 59.0528 2.10873 58.2107V38.6318C2.10873 37.7897 2.84679 37.0528 3.69028 37.0528H9.59473C10.4382 37.0528 11.1763 37.7897 11.1763 38.6318V58.2107ZM18.6623 56.8423L18.346 56.6318C17.6079 56.2107 16.7644 55.8949 15.8155 55.8949H13.285V40.4212H17.5025C18.8731 40.4212 20.0329 40.9475 20.8764 41.5791C28.4679 47.2633 29.2059 49.1581 32.1582 49.1581H42.8072C43.6507 49.1581 44.3888 49.7897 44.3888 50.737C44.3888 51.5791 43.7562 52.316 42.8072 52.316H30.682C30.0494 52.316 29.6277 52.737 29.6277 53.3686C29.6277 54.0002 30.0494 54.4212 30.682 54.4212C40.5931 54.4212 42.9127 54.4212 43.1236 54.4212C43.229 54.4212 43.4399 54.4212 43.5453 54.4212L59.7825 49.4739C60.626 49.3686 61.4695 49.7897 61.7858 50.6318C62.2076 51.5791 61.6804 52.737 60.626 53.1581L32.6853 63.6844C31.5255 64.1054 30.3657 63.8949 29.3114 63.3686H29.2059L18.6623 56.8423Z" fill="#2B59C3"/>
<path d="M60.3096 4.10533H54.4052C52.4019 4.10533 50.7149 5.78954 50.7149 7.78954V7.8948H48.1844C47.6572 7.8948 47.2355 7.78954 46.8137 7.47375L35.8483 0.842169C34.2668 -0.1052 32.4744 -0.315726 30.6819 0.315853L2.74125 10.9474C0.527079 11.6843 -0.527286 14.1053 0.316206 16.2106C0.948826 17.8948 2.84668 18.9474 4.63911 18.6316H4.74454L17.6078 14.7369C17.6078 14.9474 17.6078 15.0527 17.6078 15.2632C17.6078 17.2632 19.1894 18.8422 21.1926 18.8422H31.8417C32.4744 18.8422 33.2124 19.0527 33.7396 19.4737L41.8582 25.8948C42.4908 26.3159 43.1235 26.7369 43.8615 26.9474C43.9669 27.0527 44.0724 27.0527 44.2833 27.0527C45.0213 27.2632 45.8648 27.4737 46.6029 27.4737H50.8203C51.0312 29.3685 52.6128 30.8422 54.5106 30.8422H60.4151C62.4184 30.8422 64.1053 29.158 64.1053 27.158V7.78954C63.9999 5.68427 62.4184 4.10533 60.3096 4.10533ZM43.1235 24.3159L35.0048 17.8948C34.0559 17.158 33.0015 16.7369 31.8417 16.7369H21.1926C20.3492 16.7369 19.7165 16.1053 19.7165 15.2632C19.7165 14.4211 20.3492 13.7895 21.1926 13.7895H33.3179C33.9505 13.7895 34.3722 13.3685 34.3722 12.7369C34.3722 12.1053 33.9505 11.6843 33.3179 11.6843C22.9851 11.6843 21.0872 11.6843 20.8763 11.6843C20.4546 11.6843 21.2981 11.4737 4.21736 16.6316C3.37387 16.7369 2.53037 16.2106 2.21406 15.4737C1.79232 14.5264 2.3195 13.3685 3.37387 12.9474L31.3146 2.31585C32.4744 1.8948 33.7396 2.10533 34.6885 2.63164L45.6539 9.26322C46.392 9.68427 47.2355 10.0001 48.1844 10.0001H50.7149V25.579H46.4974C45.2322 25.579 44.0724 25.158 43.1235 24.3159ZM61.8912 27.2632C61.8912 28.1053 61.1531 28.8422 60.3096 28.8422H54.4052C53.5617 28.8422 52.8236 28.1053 52.8236 27.2632V26.6316V8.94743V7.78954C52.8236 6.94743 53.5617 6.21059 54.4052 6.21059H60.3096C61.1531 6.21059 61.8912 6.94743 61.8912 7.78954V27.2632Z" fill="#2B59C3"/>
</g>
<defs>
<clipPath id="clip0">
<rect width="64" height="66" fill="white"/>
</clipPath>
</defs>
</svg>
