<?xml version="1.0" encoding="utf-8"?>
<!-- Generator: Adobe Illustrator 22.0.1, SVG Export Plug-In . SVG Version: 6.00 Build 0)  -->
<svg version="1.1" id="Layer_1" xmlns="http://www.w3.org/2000/svg" xmlns:xlink="http://www.w3.org/1999/xlink" x="0px" y="0px"
	 viewBox="0 0 45.1 77.3" style="enable-background:new 0 0 45.1 77.3;" xml:space="preserve">
<style type="text/css">
	.st0{fill:#2B59C3;stroke:#2B59C3;stroke-width:0.3;stroke-miterlimit:10;}
</style>
<path class="st0" d="M39.7,15.9c-1.2,0-2.2,0.4-2.9,1l0.1-9.5c0-2.9-2.4-5.2-5.4-5.2c-1.5,0-2.8,0.6-3.8,1.5c-0.7-2-2.7-3.6-5.1-3.6
	c-3,0-5.4,2.3-5.4,5.2v1.9c-0.9-0.9-2.2-1.4-3.5-1.4C11,5.8,8.6,8.1,8.6,11L8.5,32.5c-2.1-1-4.9-0.1-6.2,0.7
	c-2.4,1.5-2.6,5.1-1.7,15.1c0.6,6.9,1.3,11.2,2.1,13.8v0.1c3.2,9.1,11,14.9,20.6,14.9c12.1,0,21.6-9.6,21.6-22L45,21.1
	C45,18.3,42.7,15.9,39.7,15.9z M43,55.2c0,11.2-8.6,20.2-19.8,20.2c-8.6,0-15.8-5.1-18.7-13.3c0-0.1,0-0.1,0-0.2
	c-0.9-2.3-1.6-6.8-2.1-13.6c-0.8-9.3-0.6-12.5,0.9-13.4c1-0.7,3.3-1.3,4.7-0.6c0.8,0.4,1.3,1.4,1.4,2.8c0.2,5.3,0,10.2,0,10.2
	c0,0.3,0.1,0.5,0.3,0.7c0.2,0.2,0.4,0.3,0.7,0.3c0.2,0,1.6-0.1,3.4,0.2c0.2,0.1,0.4,0.1,0.6,0.1c3.8,0.8,8.8,3.1,9.3,10.2v1.9l0,0
	v2.5c0,0.4,0.2,0.7,0.6,0.9c0.1,0,0.2,0.1,0.3,0.1c0.3,0,0.5-0.1,0.7-0.3c0.3-0.3,6.6-8.1,8.9-11.9c0.1-0.1,2.5-3.4,2.4-6.3
	c-0.1-3.6-2.9-6.4-6.4-6.4c-1.7,0-3.3,0.7-4.5,1.9c-0.4,0.4-0.7,0.8-1,1.2c-1.1-1.9-3.2-3.1-5.5-3.1c-3.5,0-6.4,2.9-6.4,6.4
	c0,0.3,0,0.6,0.1,1c-0.7-0.1-1.2-0.1-1.7-0.1c0-1.7,0.1-5.6,0-9.4c0-1.2-0.3-2.2-0.8-2.8l0.1-23.1c0-1.9,1.6-3.4,3.5-3.4
	s3.5,1.5,3.5,3.4c0,0.1,0,0.1,0,0.2v23.1c0,0.5,0.4,0.9,0.9,0.9l0,0c0.5,0,0.9-0.4,0.9-0.9V5.4C19.4,3.5,21,2,22.9,2
	s3.5,1.5,3.5,3.4v2l0,0v0.1l-0.3,26.2c0,0.5,0.4,0.9,0.9,0.9c0.5,0,0.9-0.4,0.9-0.9l0.2-26.3c0-1.9,1.6-3.4,3.5-3.4
	c2,0,3.5,1.5,3.5,3.4l-0.2,28.7c0,0.5,0.4,0.9,0.9,0.9l0,0c0.5,0,0.9-0.4,0.9-0.9l0.1-14.9c0-0.1,0-0.1,0-0.2c0-1.6,0.8-3.4,2.9-3.4
	c1.9,0,3.5,1.5,3.5,3.4L43,55.2z M14.4,45.7c0-2.5,2.1-4.6,4.6-4.6c1.2,0,2.4,0.5,3.3,1.3c0.9,0.8,1.3,2,1.3,3.3l0,0
	c0,0.5,0.4,0.9,0.9,0.9s0.9-0.4,0.9-0.9c0,0,0,0,0-0.1c0-2.5,2.1-4.5,4.6-4.5s4.5,2,4.6,4.6c0,1.8-1.5,4.3-2.1,5.2
	c-1.6,2.6-5.2,7.2-7.3,9.8v-1.9c-0.5-8.1-6.4-10.9-10.6-11.8C14.5,46.4,14.4,46.1,14.4,45.7z"/>
</svg>
