<svg width="110" height="116" viewBox="0 0 110 116" fill="none" xmlns="http://www.w3.org/2000/svg">
<g clip-path="url(#clip0)">
<path d="M55.2444 94.2653C56.5945 94.2653 57.6889 93.1719 57.6889 91.8232C57.6889 90.4744 56.5945 89.381 55.2444 89.381C53.8944 89.381 52.8 90.4744 52.8 91.8232C52.8 93.1719 53.8944 94.2653 55.2444 94.2653Z" fill="#2B59C3"/>
<path d="M101.322 19.5374H72.6489C74.2622 17.9257 78.1244 14.0671 80.7644 11.4297C82.5978 9.59808 82.5978 6.59429 80.7644 4.76271L77.3667 1.39261C75.5333 -0.438974 72.5267 -0.438974 70.6933 1.39261L52.5311 19.5374H8.67778C3.88667 19.5374 0 23.4204 0 28.2069V91.4574C0 96.244 3.88667 100.127 8.67778 100.127H12.2222V103.79C12.2222 104.474 12.76 105.011 13.4444 105.011H37.8889C38.5733 105.011 39.1111 104.474 39.1111 103.79V100.127H41.5556V113.558H38.3778C37.6933 113.558 37.1556 114.096 37.1556 114.78C37.1556 115.463 37.6933 116.001 38.3778 116.001H42.7778C46.4689 116.001 67.7356 116.001 72.1111 116.001C72.7956 116.001 73.3333 115.463 73.3333 114.78C73.3333 114.096 72.7956 113.558 72.1111 113.558H68.6889V100.127H70.8889V103.79C70.8889 104.474 71.4267 105.011 72.1111 105.011H96.5556C97.24 105.011 97.7778 104.474 97.7778 103.79V100.127H101.322C106.113 100.127 110 96.244 110 91.4574V28.2069C110 23.4204 106.113 19.5374 101.322 19.5374ZM63.5556 11.9669L66.0489 14.4579L42.8511 37.6334L38.94 36.5345L63.5556 11.9669ZM68.3222 7.20482L74.9222 13.7985L71.8911 16.8511L65.2911 10.2574L68.3222 7.20482ZM42.2156 40.0023L43.4378 44.5934L35.8356 46.3762L37.5222 38.6836L42.2156 40.0023ZM35.4933 36.6322C35.4689 36.681 35.4444 36.7299 35.42 36.8031C35.42 36.8031 35.42 36.8276 35.3956 36.8276V36.852C35.3467 37.0718 33 47.7926 33 47.7682C32.9756 47.8414 32.9756 47.8903 32.9756 47.9636V47.988C32.9756 47.988 32.9756 47.988 32.9756 48.0124C32.9756 48.5741 33.3667 48.8916 33.3422 48.8671C33.3667 48.8916 33.3911 48.8916 33.4156 48.916C33.5622 49.0381 33.5378 49.0137 33.6111 49.0625C33.7578 49.1358 33.7089 49.1113 33.8311 49.1602C34.1489 49.2579 31.3867 49.209 85.7267 49.209C86.9733 49.209 87.9756 50.2103 87.9756 51.4558C87.9756 52.7012 86.9733 53.7025 85.7267 53.7025H58.6667C55.9778 53.7025 53.7778 55.9004 53.7778 58.5867C53.7778 61.273 55.9778 63.4709 58.6667 63.4709H67.2222C67.9067 63.4709 68.4444 62.9337 68.4444 62.2499C68.4444 61.5661 67.9067 61.0288 67.2222 61.0288H58.6667C57.3222 61.0288 56.2222 59.9299 56.2222 58.5867C56.2222 57.2436 57.3222 56.1446 58.6667 56.1446H85.7511C88.3422 56.1446 90.4444 54.0444 90.4444 51.4558C90.4444 48.8671 88.3422 46.7669 85.7511 46.7669H44.7822C44.8067 46.7669 45.2222 46.6692 45.2467 46.6448H45.2711C45.4667 46.596 45.6622 46.4739 45.7844 46.3518L62.8467 29.3059H100.222V83.0322H9.77778V29.3059H42.7533C35.0778 36.9741 35.64 36.3391 35.4933 36.6322ZM45.5644 43.1282L44.5622 39.3918L67.76 16.2162L70.1556 18.5606C66.3422 22.3703 47.4467 41.2478 45.5644 43.1282ZM72.4289 3.10208C73.3089 2.22292 74.7511 2.22292 75.6556 3.10208L79.0289 6.47218C79.9089 7.35134 79.9089 8.79218 79.0289 9.69576L76.6578 12.0646L70.0578 5.47092L72.4289 3.10208ZM36.6667 102.569H14.6667V100.127H36.6667V102.569ZM66.2444 113.558H44V100.127H66.2444V113.558ZM95.3333 102.569H73.3333V100.127H95.3333V102.569ZM107.556 91.4574C107.556 94.9008 104.769 97.6848 101.322 97.6848C81.0089 97.6848 109.511 97.6848 8.67778 97.6848C5.23111 97.6848 2.44444 94.9008 2.44444 91.4574V28.2069C2.44444 24.7636 5.23111 21.9796 8.67778 21.9796H50.0867L45.1978 26.8638H8.55556C7.87111 26.8638 7.33333 27.401 7.33333 28.0848V84.2532C7.33333 84.937 7.87111 85.4743 8.55556 85.4743H101.444C102.129 85.4743 102.667 84.937 102.667 84.2532V28.0848C102.667 27.401 102.129 26.8638 101.444 26.8638H65.3156L70.2044 21.9796H101.322C104.769 21.9796 107.556 24.7636 107.556 28.2069V91.4574Z" fill="#2B59C3"/>
<path d="M70.8889 63.4947C71.5639 63.4947 72.1111 62.948 72.1111 62.2737C72.1111 61.5993 71.5639 61.0526 70.8889 61.0526C70.2139 61.0526 69.6667 61.5993 69.6667 62.2737C69.6667 62.948 70.2139 63.4947 70.8889 63.4947Z" fill="#2B59C3"/>
<path d="M74.5555 63.4947C75.2306 63.4947 75.7778 62.948 75.7778 62.2737C75.7778 61.5993 75.2306 61.0526 74.5555 61.0526C73.8805 61.0526 73.3333 61.5993 73.3333 62.2737C73.3333 62.948 73.8805 63.4947 74.5555 63.4947Z" fill="#2B59C3"/>
<path d="M13.4445 80.5895H48.8889C49.5733 80.5895 50.1111 80.0522 50.1111 79.3684V54.9474C50.1111 54.2636 49.5733 53.7263 48.8889 53.7263H13.4445C12.76 53.7263 12.2222 54.2636 12.2222 54.9474V79.3684C12.2222 80.0522 12.76 80.5895 13.4445 80.5895ZM14.6667 56.1684H47.6667V78.1474H14.6667V56.1684Z" fill="#2B59C3"/>
<path d="M44 58.6105H18.3333C17.6489 58.6105 17.1111 59.1478 17.1111 59.8316C17.1111 60.5154 17.6489 61.0526 18.3333 61.0526H44C44.6844 61.0526 45.2222 60.5154 45.2222 59.8316C45.2222 59.1478 44.6844 58.6105 44 58.6105Z" fill="#2B59C3"/>
<path d="M44 63.4948H18.3333C17.6489 63.4948 17.1111 64.032 17.1111 64.7158C17.1111 65.3996 17.6489 65.9369 18.3333 65.9369H44C44.6844 65.9369 45.2222 65.3996 45.2222 64.7158C45.2222 64.032 44.6844 63.4948 44 63.4948Z" fill="#2B59C3"/>
<path d="M44 68.379H18.3333C17.6489 68.379 17.1111 68.9162 17.1111 69.6C17.1111 70.2838 17.6489 70.8211 18.3333 70.8211H44C44.6844 70.8211 45.2222 70.2838 45.2222 69.6C45.2222 68.9162 44.6844 68.379 44 68.379Z" fill="#2B59C3"/>
<path d="M28.1111 73.2632H18.3333C17.6489 73.2632 17.1111 73.8005 17.1111 74.4842C17.1111 75.168 17.6489 75.7053 18.3333 75.7053H28.1111C28.7955 75.7053 29.3333 75.168 29.3333 74.4842C29.3333 73.8005 28.7955 73.2632 28.1111 73.2632Z" fill="#2B59C3"/>
</g>
<defs>
<clipPath id="clip0">
<rect width="110" height="116" fill="white"/>
</clipPath>
</defs>
</svg>
