<svg width="102" height="87" viewBox="0 0 102 87" fill="none" xmlns="http://www.w3.org/2000/svg">
<g clip-path="url(#clip0)">
<path d="M0.313782 31.295C0.313782 37.3975 5.177 42.4047 11.2952 42.5612C11.4521 42.5612 11.609 42.7176 11.7659 42.7176H32.3169V79.8022C32.3169 81.6799 33.1013 83.4011 34.3563 84.6529C37.6507 87.9389 37.4938 86.2177 89.7342 86.6871C93.9699 86.6871 97.4212 83.2446 97.4212 79.1763V75.5774C97.4212 74.6385 96.7937 74.0126 95.8524 74.0126H87.5379V42.7176H90.0479C96.3231 42.7176 101.5 37.554 101.5 31.295C101.5 27.0702 99.3037 23.4712 95.8524 21.4371C99.3037 19.4029 101.5 15.6475 101.5 11.5792C101.5 5.32016 96.3231 0.156494 90.0479 0.156494H11.609C11.4521 0.156494 11.2952 0.156494 11.2952 0.312969C5.177 0.469444 0.313782 5.47664 0.313782 11.5792C0.313782 15.804 2.66695 19.4029 5.96139 21.4371C2.66695 23.4712 0.313782 27.0702 0.313782 31.295ZM19.4529 39.5881C21.6492 37.554 23.0611 34.581 23.0611 31.295C23.0611 28.009 21.6492 25.1925 19.4529 23.0018H23.6886C23.8455 23.0018 23.8455 23.0018 24.0023 23.0018C28.5518 23.0018 32.16 26.6007 32.16 31.1385V39.4317C32.16 39.5882 19.4529 39.5881 19.4529 39.5881ZM93.9699 79.0198C93.9699 81.5234 91.9305 83.4011 89.4204 83.4011H44.7102C45.3377 82.3058 45.8084 81.054 45.8084 79.8022V79.6457V76.9856C47.3772 76.9856 83.4591 76.9856 93.9699 76.9856V79.0198ZM44.2396 73.8561C43.2983 73.8561 42.6708 74.482 42.6708 75.4209V79.6457C42.6708 84.8094 35.2976 84.6529 35.2976 79.8022V31.295C35.2976 28.009 33.8857 25.1925 31.8462 23.1583H76.0858C80.6353 23.1583 84.2435 26.7572 84.2435 31.295C84.2435 46.9425 84.2435 64.4676 84.2435 73.8561H44.2396ZM98.0487 31.295C98.0487 35.8328 94.2836 39.5881 89.7342 39.5881H87.2241V31.295C87.2241 28.009 85.8122 25.1925 83.6159 23.0018H89.7342C94.4405 23.0018 98.0487 26.7572 98.0487 31.295ZM98.0487 11.7356C98.0487 16.2734 94.4405 20.0288 89.7342 20.0288H19.4529C21.6492 17.9946 23.0611 15.0216 23.0611 11.7356C23.0611 8.44966 21.6492 5.63311 19.4529 3.44247H89.8911C94.4405 3.44247 98.0487 7.19786 98.0487 11.7356ZM3.45134 11.7356C3.45134 7.19786 7.05953 3.59894 11.609 3.59894C16.1585 3.59894 19.7666 7.19786 19.7666 11.7356C19.7666 16.2734 16.1585 19.8723 11.609 19.8723C7.05953 19.8723 3.45134 16.1169 3.45134 11.7356ZM11.609 23.1583C16.1585 23.1583 19.7666 26.7572 19.7666 31.295C19.7666 35.8328 16.1585 39.4317 11.609 39.4317C7.05953 39.4317 3.45134 35.8328 3.45134 31.295C3.45134 26.7572 7.05953 23.1583 11.609 23.1583Z" fill="#2B59C3" stroke="white" stroke-width="0.4" stroke-miterlimit="10"/>
<path d="M76.8702 26.6007H42.9846C42.0433 26.6007 41.4158 27.2266 41.4158 28.1655V52.2626C41.4158 53.045 42.2002 53.8273 42.9846 53.8273H76.8702C77.6546 53.8273 78.439 53.2014 78.439 52.2626C78.439 51.9496 78.439 28.3219 78.439 28.1655C78.439 27.2266 77.8114 26.6007 76.8702 26.6007ZM75.3014 29.7302V46.473L69.0263 36.1457C68.7125 35.6762 68.2419 35.3633 67.6144 35.3633C66.9869 35.3633 66.5162 35.6762 66.2025 36.1457L59.7705 48.6637L55.0641 39.9011C54.7504 39.4316 54.4366 39.1187 53.966 39.1187C53.4954 39.1187 53.0247 39.2752 52.5541 39.5881L44.3965 48.1942V29.7302H75.3014ZM46.5927 50.5414L53.4954 43.3435L57.4173 50.5414H46.5927ZM62.4374 50.5414L67.7713 40.0575L74.0464 50.5414H62.4374Z" fill="#2B59C3" stroke="white" stroke-width="0.4" stroke-miterlimit="10"/>
<path d="M76.8702 57.1133H42.9846C42.0433 57.1133 41.4158 57.7392 41.4158 58.678C41.4158 59.6169 42.0433 60.2428 42.9846 60.2428H76.8702C77.8114 60.2428 78.439 59.6169 78.439 58.678C78.439 57.7392 77.8114 57.1133 76.8702 57.1133Z" fill="#2B59C3" stroke="white" stroke-width="0.4" stroke-miterlimit="10"/>
<path d="M76.8702 64.6241H42.9846C42.0433 64.6241 41.4158 65.25 41.4158 66.1889C41.4158 67.1277 42.0433 67.7536 42.9846 67.7536H76.8702C77.8114 67.7536 78.439 67.1277 78.439 66.1889C78.439 65.25 77.8114 64.6241 76.8702 64.6241Z" fill="#2B59C3" stroke="white" stroke-width="0.4" stroke-miterlimit="10"/>
</g>
<defs>
<clipPath id="clip0">
<rect width="101.5" height="87" fill="white"/>
</clipPath>
</defs>
</svg>
