<svg width="36" height="36" viewBox="0 0 36 36" fill="none" xmlns="http://www.w3.org/2000/svg">
<circle cx="18" cy="18" r="17.5" stroke="white"/>
<path d="M21.5608 11.9014V11.9H21.4608H15.5115C13.52 11.9 11.9 13.52 11.9 15.5115V21.4609C11.9 23.4523 13.52 25.0722 15.5115 25.0722H21.4609C23.4523 25.0722 25.0722 23.4523 25.0722 21.4609V15.5115C25.0722 13.5534 23.5062 11.9545 21.5608 11.9014ZM24.1118 21.4609C24.1118 22.9225 22.9225 24.1118 21.4608 24.1118H15.5115C14.0498 24.1118 12.8605 22.9225 12.8605 21.4609V15.5115C12.8605 14.0498 14.0498 12.8605 15.5115 12.8605H21.4609C22.9225 12.8605 24.1118 14.0498 24.1118 15.5115V21.4609Z" fill="white" stroke="white" stroke-width="0.2"/>
<path d="M18.4861 14.839C16.475 14.839 14.8391 16.4749 14.8391 18.486C14.8391 20.497 16.475 22.133 18.4861 22.133C20.4972 22.133 22.1331 20.497 22.1331 18.486C22.1331 16.4749 20.4972 14.839 18.4861 14.839ZM18.4861 21.1725C17.0049 21.1725 15.7996 19.9672 15.7996 18.486C15.7996 17.0048 17.0049 15.7995 18.4861 15.7995C19.9674 15.7995 21.1726 17.0048 21.1726 18.486C21.1726 19.9672 19.9674 21.1725 18.4861 21.1725Z" fill="white" stroke="white" stroke-width="0.2"/>
<path d="M22.1179 13.6792C21.5399 13.6792 21.0698 14.1494 21.0698 14.7273C21.0698 15.3053 21.5399 15.7755 22.1179 15.7755C22.6959 15.7755 23.1661 15.3053 23.1661 14.7273C23.1661 14.1493 22.6959 13.6792 22.1179 13.6792ZM22.1179 15.0149C21.9594 15.0149 21.8303 14.8858 21.8303 14.7273C21.8303 14.5686 21.9594 14.4397 22.1179 14.4397C22.2766 14.4397 22.4056 14.5686 22.4056 14.7273C22.4056 14.8858 22.2766 15.0149 22.1179 15.0149Z" fill="white"/>
</svg>
