<svg width="70" height="73" viewBox="0 0 70 73" fill="none" xmlns="http://www.w3.org/2000/svg">
<path d="M45.4969 0C50.4841 0 52.4965 3.4322 52.4965 9.0321C52.3215 15.8062 50.4841 22.4899 47.7718 28.6318C51.6215 28.9931 55.5588 28.9027 59.496 28.9027C66.058 28.9027 69.9953 31.7027 69.9953 37.0316C70.0828 39.1993 68.9454 40.9154 67.283 42.1799L67.3705 42.2702C68.7704 45.6121 68.6829 48.8637 65.5331 51.212L65.6206 51.3024C67.0205 54.6442 66.933 57.8958 63.7832 60.2441L63.8707 60.3345C64.8331 63.1344 64.6581 61.8699 64.8331 64.1279C64.8331 69.0956 61.3334 72.2568 56.0837 72.2568H45.4969C39.7223 72.2568 33.0728 71.7149 27.2982 70.8117C25.8108 70.5407 24.3234 70.3601 22.7485 69.9988V70.4504C22.7485 71.4439 21.961 72.2568 20.9986 72.2568H1.74988C0.787447 72.2568 0 71.4439 0 70.4504V27.0963C0 26.1028 0.787447 25.2899 1.74988 25.2899H20.9986C21.961 25.2899 22.7485 26.1028 22.7485 27.0963V27.3673C26.5982 25.0189 29.398 21.2254 32.1978 17.7029C32.8978 16.7094 33.5977 15.6255 34.2977 14.361C35.2601 12.6449 38.5849 5.69023 39.3723 4.33541C41.0347 1.62578 42.8721 0 45.4969 0ZM3.49976 28.9027V68.644H19.2487V28.9027H3.49976ZM45.4969 3.61284C41.9972 3.61284 40.2473 12.6449 34.9976 19.8706C31.7604 24.477 27.8231 28.3608 23.2734 31.4317L22.7485 31.7027V66.2053C30.1855 68.1021 37.8849 68.373 45.4969 68.644C45.4969 68.644 52.4965 68.644 55.9962 68.644C59.496 68.644 61.2459 66.8376 61.2459 64.1279C61.2459 61.4183 59.496 61.4183 59.496 59.6119C59.496 57.8055 62.9958 57.8055 62.9958 55.0958C62.9958 52.3862 61.2459 52.3862 61.2459 50.5798C61.2459 48.7734 64.7456 48.7734 64.7456 46.0637C64.7456 43.3541 62.9958 43.3541 62.9958 41.5477C62.9958 39.7413 66.4955 39.7413 66.4955 37.0316C66.4955 34.322 64.7456 32.5156 59.496 32.5156C47.2468 32.5156 41.9972 32.5156 43.7471 28.9027C45.6719 24.9286 48.9967 16.2578 48.9967 9.0321C48.9967 5.41926 48.2092 3.61284 45.4969 3.61284Z" fill="white"/>
</svg>
