<svg width="46" height="66" viewBox="0 0 46 66" fill="none" xmlns="http://www.w3.org/2000/svg">
<g clip-path="url(#clip0)">
<path d="M40.504 0H5.47352C2.40835 0 0 2.42 0 5.5V23.1C0 25.85 1.97047 28.05 4.59775 28.49C4.37881 29.26 4.37881 30.03 4.70722 30.8L7.33451 37.07C8.53868 39.93 11.2754 41.8 14.4501 41.8H16.6395V62.15C16.6395 64.24 18.391 66 20.4709 66C21.5657 66 22.5509 65.56 23.2077 64.79C23.8645 65.56 24.8498 66 25.9445 66C28.0244 66 29.7759 64.24 29.7759 62.15V41.8H31.9653C35.0305 41.8 37.8767 39.93 39.0809 37.07L41.7082 30.8C42.0366 30.03 42.0366 29.26 41.7082 28.49C44.226 28.05 46.1965 25.74 46.1965 23.1V5.5C45.9775 2.42 43.5692 0 40.504 0ZM26.3823 31.9C26.3823 33.77 24.9592 35.2 23.0982 35.2C21.2372 35.2 19.8141 33.77 19.8141 31.9C19.8141 30.03 21.2372 28.6 23.0982 28.6C24.9592 28.6 26.3823 30.03 26.3823 31.9ZM27.3676 28.6H35.4684L33.06 33.33C32.5127 34.43 31.418 35.2 30.1043 35.2H27.3676C28.0244 34.32 28.4623 33.11 28.4623 31.9C28.4623 30.69 28.1339 29.48 27.3676 28.6ZM18.7194 35.2H15.8732C14.669 35.2 13.4648 34.54 12.9175 33.33L10.6186 28.6H18.7194C18.0626 29.48 17.6247 30.69 17.6247 31.9C17.6247 33.11 17.9531 34.32 18.7194 35.2ZM39.4093 29.92L36.782 36.19C35.9063 38.28 33.9358 39.6 31.7464 39.6H28.4623C27.8055 39.6 27.3676 40.04 27.3676 40.7V62.15C27.3676 63.03 26.6013 63.8 25.7255 63.8C24.8498 63.8 24.0835 63.03 24.0835 62.15V48.4H21.8941V62.15C21.8941 63.03 21.1278 63.8 20.252 63.8C19.3762 63.8 18.61 63.03 18.61 62.15V40.7C18.61 40.04 18.1721 39.6 17.5152 39.6H14.2311C12.0417 39.6 10.0713 38.28 9.19551 36.19L6.56822 29.92C6.56822 29.7 6.56822 29.26 6.78716 29.04C7.22504 28.49 8.1008 28.49 8.42921 29.15L11.0565 34.32C12.0417 36.19 13.9027 37.4 15.9827 37.4H23.0982H30.2138C32.2937 37.4 34.1547 36.19 35.14 34.32L37.7673 29.15C38.0957 28.49 39.0809 28.49 39.4093 29.04C39.5188 29.26 39.6283 29.7 39.4093 29.92ZM43.7881 23.1C43.7881 24.97 42.365 26.4 40.504 26.4H5.47352C3.61252 26.4 2.18941 24.97 2.18941 23.1V5.5C2.18941 3.63 3.61252 2.2 5.47352 2.2H40.504C42.365 2.2 43.7881 3.63 43.7881 5.5V23.1Z" fill="#2B59C3"/>
<path d="M28.6813 6.6001C26.6013 6.1601 24.4119 7.0401 22.9888 8.9101C21.4562 7.0401 19.2668 6.1601 17.2963 6.6001C14.2312 7.3701 13.1365 11.0001 13.1365 13.2001C13.1365 17.3801 16.9679 21.3401 22.6604 23.1001C22.7699 23.1001 22.8793 23.1001 22.9888 23.1001C23.0983 23.1001 23.2077 23.1001 23.3172 23.1001C29.0097 21.3401 32.8411 17.3801 32.8411 13.2001C32.8411 11.0001 31.7464 7.3701 28.6813 6.6001ZM22.9888 20.9001C18.5005 19.4701 15.3259 16.2801 15.3259 13.2001C15.3259 11.9901 15.8732 9.2401 17.7342 8.8001C17.9532 8.8001 18.0626 8.6901 18.2816 8.6901C19.7047 8.6901 21.1278 9.7901 21.8941 11.4401C22.113 11.8801 22.4415 12.1001 22.8793 12.1001C23.3172 12.1001 23.6456 11.8801 23.8646 11.4401C24.7403 9.5701 26.6013 8.3601 28.1339 8.6901C29.9949 9.1301 30.5423 11.8801 30.5423 13.0901C30.6517 16.2801 27.4771 19.3601 22.9888 20.9001Z" fill="#2B59C3"/>
</g>
<defs>
<clipPath id="clip0">
<rect width="45.9775" height="66" fill="white"/>
</clipPath>
</defs>
</svg>
