<?xml version="1.0" encoding="utf-8"?>
<!-- Generator: Adobe Illustrator 22.0.1, SVG Export Plug-In . SVG Version: 6.00 Build 0)  -->
<svg version="1.1" id="Layer_1" xmlns="http://www.w3.org/2000/svg" xmlns:xlink="http://www.w3.org/1999/xlink" x="0px" y="0px"
	 viewBox="0 0 63.7 56.4" style="enable-background:new 0 0 63.7 56.4;" xml:space="preserve">
<style type="text/css">
	.st0{fill:#2B59C3;stroke:#FFFFFF;stroke-width:0.4252;stroke-miterlimit:10;}
</style>
<g>
	<path class="st0" d="M29.9,18.3H17.7c-9,0-9,14,0,14h10.4h1.7V18.3z M19.3,42.7h5.8v-7.4h-5.8V42.7z M25.1,45.8h-5.8v4.5
		c0,3.8,5.8,3.8,5.8,0V45.8z M16.2,24.5c-2,0-2-3.1,0-3.1h8.3c2,0,2,3.1,0,3.1H16.2z M55.5,34.5c-1.8-1-0.2-3.7,1.6-2.7l5.3,3.1
		c1.8,1,0.2,3.7-1.6,2.7L55.5,34.5L55.5,34.5z M57,19c-1.8,1-3.3-1.7-1.5-2.7l5.3-3.1c1.8-1,3.3,1.7,1.5,2.7L57,19z M55.9,27
		c-2,0-2-3.1,0-3.1H62c2,0,2,3.1,0,3.1H55.9z M28.2,35.3v14.9c0,7.9-12,7.9-12,0v-15c-3.3-0.5-5.9-2.6-7.3-5.4H4.6
		c-5.8,0-6.1-9.1,0-9.1h4.2c1.6-3.3,5-5.5,8.9-5.5H31l19-14.7c1-0.8,2.5,0,2.5,1.2l0,47.4c0,1.4-1.6,2-2.6,1.2l-19.4-15H28.2
		L28.2,35.3z M4.6,26.7h4.3v-2.9H4.6C2.8,23.8,2.8,26.7,4.6,26.7z M49.5,4.9L33,17.6v15.7L49.5,46V4.9z"/>
</g>
</svg>
