<svg width="65" height="65" viewBox="0 0 65 65" fill="none" xmlns="http://www.w3.org/2000/svg">
<path d="M32.5 65C14.625 65 0 50.375 0 32.5C0 14.625 14.625 0 32.5 0C50.375 0 65 14.625 65 32.5C65 50.375 50.375 65 32.5 65ZM32.5 2.70833C16.1146 2.70833 2.70833 16.1146 2.70833 32.5C2.70833 48.8854 16.1146 62.2917 32.5 62.2917C48.8854 62.2917 62.2917 48.8854 62.2917 32.5C62.2917 16.1146 48.8854 2.70833 32.5 2.70833Z" fill="#2B59C3"/>
<path d="M18.2814 28.3021C15.3022 28.3021 12.8647 25.8646 12.8647 22.8854C12.8647 19.9063 15.3022 17.4688 18.2814 17.4688C21.2606 17.4688 23.6981 19.9063 23.6981 22.8854C23.6981 25.8646 21.2606 28.3021 18.2814 28.3021ZM18.2814 20.1771C16.7918 20.1771 15.5731 21.3958 15.5731 22.8854C15.5731 24.375 16.7918 25.5938 18.2814 25.5938C19.771 25.5938 20.9897 24.375 20.9897 22.8854C20.9897 21.3958 19.771 20.1771 18.2814 20.1771Z" fill="#2B59C3"/>
<path d="M19.7708 26.9479C18.2812 26.9479 17.0625 25.7292 17.0625 24.2396C17.0625 22.75 18.2812 21.5312 19.7708 21.5312C21.2604 21.5312 22.4792 22.75 22.4792 24.2396C22.4792 25.7292 21.2604 26.9479 19.7708 26.9479Z" fill="#2B59C3"/>
<path d="M46.5832 28.5728C43.604 28.5728 41.1665 26.1353 41.1665 23.1562C41.1665 20.177 43.604 17.7395 46.5832 17.7395C49.5623 17.7395 51.9998 20.177 51.9998 23.1562C51.9998 26.1353 49.5623 28.5728 46.5832 28.5728ZM46.5832 20.4478C45.0936 20.4478 43.8748 21.6666 43.8748 23.1562C43.8748 24.6458 45.0936 25.8645 46.5832 25.8645C48.0728 25.8645 49.2915 24.6458 49.2915 23.1562C49.2915 21.6666 48.0728 20.4478 46.5832 20.4478Z" fill="#2B59C3"/>
<path d="M48.0731 27.2187C46.5835 27.2187 45.3647 25.9999 45.3647 24.5103C45.3647 23.0208 46.5835 21.802 48.0731 21.802C49.5627 21.802 50.7814 23.0208 50.7814 24.5103C50.7814 25.9999 49.5627 27.2187 48.0731 27.2187Z" fill="#2B59C3"/>
<path d="M32.5835 56.3333C22.2918 56.3333 13.896 47.9374 13.896 37.6458H16.6043C16.6043 46.4478 23.7814 53.6249 32.5835 53.6249C41.3856 53.6249 48.5627 46.4478 48.5627 37.6458H51.271C51.271 47.9374 42.8752 56.3333 32.5835 56.3333Z" fill="#2B59C3"/>
</svg>
