<svg width="72" height="74" viewBox="0 0 72 74" fill="none" xmlns="http://www.w3.org/2000/svg">
<path d="M36 2.78965C54.4411 2.78965 69.4444 18.0587 69.4444 36.8264C69.4444 55.5941 54.4411 70.8632 36 70.8632C17.5589 70.8632 2.55556 55.5941 2.55556 36.8264C2.55556 18.0587 17.5589 2.78965 36 2.78965ZM36 1.20654C16.75 1.20654 1 17.2355 1 36.8264C1 56.4173 16.75 72.4463 36 72.4463C55.25 72.4463 71 56.4173 71 36.8264C71 17.2355 55.25 1.20654 36 1.20654Z" fill="white" stroke="white" stroke-width="2"/>
<path d="M51.3866 60.651C51.1081 60.651 50.8296 60.5643 50.5917 60.3882L35.9995 49.6005L21.4087 60.3882C20.9342 60.7404 20.2934 60.7404 19.8189 60.3882C19.3444 60.0387 19.147 59.4169 19.3282 58.8514L24.9019 41.3938L10.3111 30.6047C9.83661 30.2539 9.63924 29.6334 9.82039 29.0666C10.0015 28.4997 10.5207 28.1159 11.106 28.1159H29.1428L34.7166 10.6597C34.8977 10.0928 35.4169 9.70898 36.0022 9.70898C36.5876 9.70898 37.1067 10.0928 37.2879 10.6597L42.8617 28.1159H60.8984C61.4851 28.1159 62.0029 28.4997 62.1841 29.0666C62.3652 29.6334 62.1665 30.2539 61.6933 30.6047L47.0984 41.3924L52.6722 58.85C52.8534 59.4155 52.6547 60.0374 52.1815 60.3868C51.9436 60.5643 51.6651 60.651 51.3866 60.651ZM35.9995 46.5228C36.278 46.5228 36.5579 46.6095 36.7944 46.7856L48.8153 55.6719L44.2244 41.2906C44.0432 40.7252 44.2419 40.1033 44.7151 39.7538L56.736 30.8661H41.8788C41.2921 30.8661 40.7744 30.4823 40.5932 29.9155L35.9995 15.5355L31.4085 29.9168C31.2274 30.4837 30.7083 30.8675 30.1229 30.8675H15.2644L27.2853 39.7552C27.7598 40.1047 27.9572 40.7265 27.776 41.292L23.1851 55.6733L35.206 46.787C35.4412 46.6109 35.721 46.5228 35.9995 46.5228Z" fill="white" stroke="white"/>
</svg>
