<svg width="71" height="89" viewBox="0 0 71 89" fill="none" xmlns="http://www.w3.org/2000/svg">
<g clip-path="url(#clip0)">
<path d="M64.3438 66.75H10.9606C9.23058 66.75 7.5714 66.0608 6.34808 64.834C5.12476 63.6073 4.4375 61.9434 4.4375 60.2085V6.67501C4.4375 6.08491 4.67126 5.51897 5.08736 5.1017C5.50345 4.68443 6.0678 4.45001 6.65625 4.45001C7.2447 4.45001 7.80905 4.68443 8.22514 5.1017C8.64124 5.51897 8.875 6.08491 8.875 6.67501V60.2085C8.875 60.7632 9.09473 61.2952 9.48587 61.6874C9.877 62.0797 10.4075 62.3 10.9606 62.3H64.3438C64.9322 62.3 65.4965 62.5344 65.9126 62.9517C66.3287 63.369 66.5625 63.9349 66.5625 64.525C66.5625 65.1151 66.3287 65.6811 65.9126 66.0983C65.4965 66.5156 64.9322 66.75 64.3438 66.75Z" fill="white"/>
<path d="M52.1406 23.3625C51.5522 23.3625 50.9878 23.1281 50.5717 22.7108C50.1556 22.2936 49.9219 21.7276 49.9219 21.1375V14.4625H43.2656C42.6772 14.4625 42.1128 14.2281 41.6967 13.8108C41.2806 13.3936 41.0469 12.8276 41.0469 12.2375C41.0469 11.6474 41.2806 11.0815 41.6967 10.6642C42.1128 10.2469 42.6772 10.0125 43.2656 10.0125H52.1406C52.7291 10.0125 53.2934 10.2469 53.7095 10.6642C54.1256 11.0815 54.3594 11.6474 54.3594 12.2375V21.1375C54.3594 21.7276 54.1256 22.2936 53.7095 22.7108C53.2934 23.1281 52.7291 23.3625 52.1406 23.3625Z" fill="white"/>
<path d="M21.0773 56.7375C20.7853 56.7392 20.4959 56.6831 20.2255 56.5724C19.9552 56.4616 19.7093 56.2985 19.502 56.0923C19.294 55.8854 19.129 55.6393 19.0163 55.3682C18.9037 55.0971 18.8457 54.8062 18.8457 54.5125C18.8457 54.2188 18.9037 53.928 19.0163 53.6568C19.129 53.3857 19.294 53.1396 19.502 52.9328L37.5626 34.8435L33.1251 31.8843C32.849 31.7047 32.6162 31.4658 32.4435 31.1849C32.2708 30.904 32.1626 30.5881 32.1267 30.26C32.0934 29.9305 32.1339 29.5977 32.2453 29.286C32.3566 28.9742 32.5359 28.6912 32.7701 28.4578L50.5201 10.6578C50.727 10.4503 50.9726 10.2858 51.2429 10.1735C51.5132 10.0612 51.8029 10.0034 52.0954 10.0034C52.388 10.0034 52.6777 10.0612 52.948 10.1735C53.2183 10.2858 53.4639 10.4503 53.6708 10.6578C53.8776 10.8652 54.0417 11.1115 54.1537 11.3826C54.2656 11.6536 54.3233 11.9441 54.3233 12.2375C54.3233 12.5309 54.2656 12.8214 54.1537 13.0925C54.0417 13.3635 53.8776 13.6098 53.6708 13.8173L37.8289 29.6815L42.2664 32.6408C42.5425 32.8203 42.7753 33.0592 42.948 33.3401C43.1207 33.621 43.2289 33.937 43.2648 34.265C43.2981 34.5945 43.2576 34.9273 43.1463 35.2391C43.0349 35.5509 42.8556 35.8338 42.6214 36.0673L22.6526 56.0923C22.4453 56.2985 22.1994 56.4616 21.9291 56.5724C21.6588 56.6831 21.3693 56.7392 21.0773 56.7375Z" fill="white"/>
</g>
<defs>
<clipPath id="clip0">
<rect width="71" height="89" fill="white"/>
</clipPath>
</defs>
</svg>
